<?xml version="1.0" standalone="no"?>
<!DOCTYPE svg PUBLIC "-//W3C//DTD SVG 20010904//EN"
 "http://www.w3.org/TR/2001/REC-SVG-20010904/DTD/svg10.dtd">
<svg version="1.0" xmlns="http://www.w3.org/2000/svg"
 width="400.000000pt" height="400.000000pt" viewBox="0 0 400.000000 400.000000"
 preserveAspectRatio="xMidYMid meet">
<metadata>
Created by potrace 1.16, written by Peter Selinger 2001-2019
</metadata>
<g transform="translate(0.000000,400.000000) scale(0.100000,-0.100000)"
fill="#000000" stroke="none">
<path d="M2290 3661 c0 -5 21 -12 46 -16 214 -32 544 -183 722 -330 132 -109
293 -279 327 -346 8 -15 19 -29 24 -31 13 -4 71 -105 139 -243 46 -92 108
-297 129 -425 39 -246 17 -536 -59 -765 -104 -314 -257 -541 -533 -789 -22
-19 -37 -36 -34 -36 3 0 32 25 65 55 32 31 71 63 87 72 15 10 27 22 27 28 0 5
30 40 65 77 36 37 65 72 65 77 0 5 11 19 25 32 13 13 25 30 25 37 0 6 5 12 10
12 6 0 10 7 10 15 0 8 4 15 9 15 5 0 17 17 28 38 10 20 36 69 58 107 22 39 40
75 41 81 1 6 16 41 33 78 17 37 29 72 25 77 -3 5 -1 9 4 9 6 0 12 15 15 33 3
17 18 77 33 132 24 90 27 122 31 307 5 221 -6 328 -47 460 -11 35 -20 70 -20
79 0 21 -80 212 -92 220 -5 3 -9 9 -8 13 1 4 -17 42 -39 84 -92 170 -283 392
-441 510 -41 31 -78 60 -81 65 -3 5 -10 8 -14 7 -6 -2 -62 35 -98 65 -7 6 -18
11 -25 13 -7 1 -38 17 -70 34 -31 18 -64 34 -73 35 -8 1 -40 14 -69 27 -30 14
-57 23 -62 20 -4 -3 -8 0 -8 5 0 6 -8 11 -17 11 -10 0 -65 14 -122 30 -110 32
-131 35 -131 21z"/>
<path d="M1411 3589 c-79 -31 -216 -98 -276 -134 -33 -19 -70 -40 -82 -47 -13
-6 -23 -15 -23 -20 0 -4 -6 -8 -12 -8 -7 0 -26 -14 -42 -30 -16 -16 -33 -27
-37 -24 -5 3 -9 1 -9 -4 0 -4 -29 -34 -65 -65 -72 -62 -253 -257 -239 -257 2
0 -8 -14 -23 -31 -16 -17 -27 -35 -26 -40 2 -5 -1 -9 -6 -9 -5 0 -19 -19 -30
-41 -12 -23 -28 -48 -37 -56 -8 -8 -12 -18 -9 -23 3 -5 2 -10 -2 -12 -29 -12
-142 -307 -146 -377 -1 -27 -5 -47 -9 -45 -17 11 -43 -198 -43 -351 0 -167 19
-330 38 -318 6 4 7 1 2 -7 -13 -20 35 -210 71 -278 7 -15 14 -33 14 -40 0 -18
109 -226 121 -230 5 -2 9 -10 9 -18 0 -8 11 -27 24 -41 13 -14 30 -37 38 -51
18 -35 63 -87 127 -150 30 -28 51 -52 47 -52 -5 0 -3 -7 4 -15 7 -8 16 -13 20
-10 4 3 24 -13 43 -35 19 -22 38 -40 42 -40 4 0 18 -10 30 -22 23 -23 86 -71
122 -91 11 -7 56 -33 99 -59 88 -53 271 -134 349 -154 241 -62 243 -63 423
-69 97 -3 202 -2 232 3 41 7 22 8 -75 5 -72 -3 -170 0 -220 6 -123 16 -124 16
-131 24 -4 4 -18 7 -32 7 -26 0 -182 40 -247 63 -169 61 -369 174 -508 286
-116 93 -259 254 -350 393 -178 270 -261 555 -261 898 0 188 15 302 61 459 30
107 106 291 138 338 13 20 22 40 19 45 -3 4 -1 8 3 8 5 0 17 16 27 35 11 19
23 35 28 35 4 0 8 6 8 13 0 6 14 27 30 46 17 18 30 37 30 42 0 4 57 64 126
134 173 172 377 308 582 386 34 13 62 27 62 31 0 9 2 9 -29 -3z"/>
<path d="M1595 3310 c-13 -25 -14 -38 -5 -68 7 -20 15 -50 20 -67 5 -16 18
-55 29 -85 27 -69 27 -84 1 -77 -22 6 -35 -7 -24 -24 4 -8 9 -8 17 0 20 20 47
13 47 -13 0 -13 7 -37 15 -52 8 -16 15 -36 15 -45 0 -20 16 -34 50 -44 14 -4
33 -15 44 -24 26 -22 246 -357 246 -374 0 -8 -17 -34 -38 -58 -21 -24 -85
-102 -142 -174 -58 -71 -110 -136 -117 -143 -7 -7 -17 -21 -22 -30 -9 -16 -13
-15 -48 5 -95 54 -151 76 -203 81 -106 8 -153 -33 -224 -194 -56 -126 -112
-185 -206 -213 -170 -50 -271 -115 -357 -229 -101 -133 -118 -246 -56 -369 67
-131 306 -337 495 -426 79 -38 185 -46 263 -22 47 15 71 31 125 86 111 113
164 241 180 434 4 53 14 104 24 123 24 46 79 105 139 149 110 81 140 125 140
203 0 68 -19 104 -106 198 -47 50 -56 65 -48 80 21 35 277 366 286 368 6 2 72
-88 148 -199 210 -308 216 -321 178 -368 -16 -20 -28 -24 -68 -23 -55 1 -104
27 -169 93 -60 59 -84 53 -84 -22 1 -84 68 -167 196 -243 154 -90 182 -138
209 -349 19 -142 29 -184 61 -246 58 -115 229 -160 393 -104 111 37 231 112
326 201 91 86 136 201 113 292 -27 109 -87 165 -293 271 -100 52 -146 108
-164 203 -20 100 -30 124 -65 162 -34 35 -76 54 -95 41 -13 -8 -14 -50 -2 -73
5 -9 12 -38 16 -64 7 -45 5 -50 -28 -83 -27 -27 -43 -35 -70 -35 -39 0 -39 -1
-282 335 -59 83 -132 182 -160 220 -88 117 -85 105 -34 172 24 32 46 60 49 63
3 3 45 58 93 122 77 102 111 135 177 172 9 5 22 21 28 35 6 14 38 54 70 88 63
69 92 112 92 139 0 25 -73 90 -110 97 -36 8 -49 -3 -101 -85 -30 -47 -59 -63
-59 -33 0 20 -26 19 -34 -1 -9 -23 -8 -24 19 -24 21 0 24 -3 16 -17 -5 -10
-20 -29 -33 -44 -26 -28 -42 -58 -57 -109 -6 -19 -51 -83 -100 -142 -49 -59
-104 -128 -122 -153 -18 -25 -38 -45 -46 -45 -12 0 -89 99 -194 248 -72 104
-80 122 -74 167 5 38 2 43 -49 96 -60 63 -120 148 -160 227 -30 59 -49 65 -71
22z"/>
</g>
</svg>
